<mxfile host="app.diagrams.net" modified="2023-02-03T01:46:03.224Z" agent="5.0 (Windows NT 10.0; Win64; x64) AppleWebKit/537.36 (KHTML, like Gecko) Chrome/109.0.0.0 Safari/537.36" etag="IoF2jKoC2GP-LnONXaaF" version="20.8.13" type="github">
  <diagram name="페이지-1" id="opmEFtcaVDkd0A4ZSGXB">
    <mxGraphModel dx="1400" dy="775" grid="1" gridSize="10" guides="1" tooltips="1" connect="1" arrows="1" fold="1" page="1" pageScale="1" pageWidth="827" pageHeight="1169" math="0" shadow="0">
      <root>
        <mxCell id="0" />
        <mxCell id="1" parent="0" />
        <mxCell id="ZJ0Vl-9VFSbvNczqbL2C-1" value="&lt;b&gt;&lt;font style=&quot;font-size: 20px;&quot;&gt;Service Planning&lt;/font&gt;&lt;/b&gt;" style="shape=process;whiteSpace=wrap;html=1;backgroundOutline=1;fillColor=#dae8fc;strokeColor=#6c8ebf;" vertex="1" parent="1">
          <mxGeometry x="240" y="40" width="360" height="80" as="geometry" />
        </mxCell>
        <mxCell id="ZJ0Vl-9VFSbvNczqbL2C-9" style="edgeStyle=orthogonalEdgeStyle;rounded=0;orthogonalLoop=1;jettySize=auto;html=1;exitX=1;exitY=0.5;exitDx=0;exitDy=0;entryX=0;entryY=0.5;entryDx=0;entryDy=0;fontSize=12;fontColor=#FF0000;" edge="1" parent="1" source="ZJ0Vl-9VFSbvNczqbL2C-2" target="ZJ0Vl-9VFSbvNczqbL2C-3">
          <mxGeometry relative="1" as="geometry" />
        </mxCell>
        <mxCell id="ZJ0Vl-9VFSbvNczqbL2C-2" value="리서치/분석&lt;br&gt;&lt;font style=&quot;font-size: 12px;&quot;&gt;- 고객 니즈 파악&lt;br&gt;- 시장조사, &lt;font color=&quot;#ff0000&quot;&gt;벤치마킹&lt;/font&gt;&lt;/font&gt;" style="rounded=1;whiteSpace=wrap;html=1;fontSize=20;fillColor=#ffe6cc;strokeColor=#d79b00;" vertex="1" parent="1">
          <mxGeometry x="40" y="240" width="160" height="80" as="geometry" />
        </mxCell>
        <mxCell id="ZJ0Vl-9VFSbvNczqbL2C-10" style="edgeStyle=orthogonalEdgeStyle;rounded=0;orthogonalLoop=1;jettySize=auto;html=1;exitX=1;exitY=0.5;exitDx=0;exitDy=0;entryX=0;entryY=0.5;entryDx=0;entryDy=0;fontSize=12;fontColor=#FF0000;" edge="1" parent="1" source="ZJ0Vl-9VFSbvNczqbL2C-3" target="ZJ0Vl-9VFSbvNczqbL2C-4">
          <mxGeometry relative="1" as="geometry" />
        </mxCell>
        <mxCell id="ZJ0Vl-9VFSbvNczqbL2C-3" value="요구사항 정의&lt;br&gt;&lt;font style=&quot;font-size: 12px;&quot;&gt;- 추진 배경, 목표 설정&lt;br&gt;- PRD 작성, 리스크 검토&lt;/font&gt;" style="rounded=1;whiteSpace=wrap;html=1;fontSize=20;fillColor=#ffe6cc;strokeColor=#d79b00;" vertex="1" parent="1">
          <mxGeometry x="240" y="240" width="160" height="80" as="geometry" />
        </mxCell>
        <mxCell id="ZJ0Vl-9VFSbvNczqbL2C-11" style="edgeStyle=orthogonalEdgeStyle;rounded=0;orthogonalLoop=1;jettySize=auto;html=1;exitX=1;exitY=0.5;exitDx=0;exitDy=0;entryX=0;entryY=0.5;entryDx=0;entryDy=0;fontSize=12;fontColor=#FF0000;" edge="1" parent="1" source="ZJ0Vl-9VFSbvNczqbL2C-4" target="ZJ0Vl-9VFSbvNczqbL2C-7">
          <mxGeometry relative="1" as="geometry" />
        </mxCell>
        <mxCell id="ZJ0Vl-9VFSbvNczqbL2C-4" value="&lt;font style=&quot;&quot;&gt;기획 문서 작성&lt;br&gt;&lt;/font&gt;&lt;font style=&quot;font-size: 12px;&quot;&gt;- 서비스 정책, 프로세스&lt;br&gt;- PR, WBS, IA, WF, &lt;font color=&quot;#ff0000&quot;&gt;SB&lt;/font&gt;&lt;/font&gt;" style="rounded=1;whiteSpace=wrap;html=1;fontSize=20;fillColor=#f8cecc;strokeColor=#b85450;" vertex="1" parent="1">
          <mxGeometry x="440" y="240" width="160" height="80" as="geometry" />
        </mxCell>
        <mxCell id="ZJ0Vl-9VFSbvNczqbL2C-6" value="&lt;font color=&quot;#000000&quot;&gt;Story Board&lt;/font&gt;" style="text;strokeColor=none;align=center;fillColor=none;html=1;verticalAlign=middle;whiteSpace=wrap;rounded=0;fontSize=12;fontColor=#FF0000;" vertex="1" parent="1">
          <mxGeometry x="440" y="190" width="160" height="30" as="geometry" />
        </mxCell>
        <mxCell id="ZJ0Vl-9VFSbvNczqbL2C-13" style="edgeStyle=orthogonalEdgeStyle;rounded=0;orthogonalLoop=1;jettySize=auto;html=1;exitX=0.5;exitY=1;exitDx=0;exitDy=0;entryX=0.5;entryY=0;entryDx=0;entryDy=0;fontSize=12;fontColor=#FF0000;" edge="1" parent="1" source="ZJ0Vl-9VFSbvNczqbL2C-7" target="ZJ0Vl-9VFSbvNczqbL2C-12">
          <mxGeometry relative="1" as="geometry" />
        </mxCell>
        <mxCell id="ZJ0Vl-9VFSbvNczqbL2C-7" value="유관부서 리뷰&lt;br&gt;&lt;font style=&quot;font-size: 12px;&quot;&gt;- 개발팀 리뷰, 디자인팀 리뷰&lt;br&gt;- QA팀 리뷰&lt;/font&gt;" style="rounded=1;whiteSpace=wrap;html=1;fontSize=20;fillColor=#ffe6cc;strokeColor=#d79b00;" vertex="1" parent="1">
          <mxGeometry x="640" y="240" width="160" height="80" as="geometry" />
        </mxCell>
        <mxCell id="ZJ0Vl-9VFSbvNczqbL2C-16" style="edgeStyle=orthogonalEdgeStyle;rounded=0;orthogonalLoop=1;jettySize=auto;html=1;exitX=0;exitY=0.5;exitDx=0;exitDy=0;entryX=1;entryY=0.5;entryDx=0;entryDy=0;fontSize=12;fontColor=#FF0000;" edge="1" parent="1" source="ZJ0Vl-9VFSbvNczqbL2C-12" target="ZJ0Vl-9VFSbvNczqbL2C-14">
          <mxGeometry relative="1" as="geometry" />
        </mxCell>
        <mxCell id="ZJ0Vl-9VFSbvNczqbL2C-12" value="디자인/개발" style="rounded=1;whiteSpace=wrap;html=1;fontSize=20;fillColor=#ffe6cc;strokeColor=#d79b00;" vertex="1" parent="1">
          <mxGeometry x="640" y="360" width="160" height="80" as="geometry" />
        </mxCell>
        <mxCell id="ZJ0Vl-9VFSbvNczqbL2C-21" style="edgeStyle=orthogonalEdgeStyle;rounded=0;orthogonalLoop=1;jettySize=auto;html=1;exitX=0;exitY=0.5;exitDx=0;exitDy=0;entryX=1;entryY=0.5;entryDx=0;entryDy=0;fontSize=12;fontColor=#000000;" edge="1" parent="1" source="ZJ0Vl-9VFSbvNczqbL2C-14" target="ZJ0Vl-9VFSbvNczqbL2C-17">
          <mxGeometry relative="1" as="geometry" />
        </mxCell>
        <mxCell id="ZJ0Vl-9VFSbvNczqbL2C-14" value="취약점 점검" style="rounded=1;whiteSpace=wrap;html=1;fontSize=20;fillColor=#ffe6cc;strokeColor=#d79b00;" vertex="1" parent="1">
          <mxGeometry x="440" y="360" width="160" height="80" as="geometry" />
        </mxCell>
        <mxCell id="ZJ0Vl-9VFSbvNczqbL2C-22" style="edgeStyle=orthogonalEdgeStyle;rounded=0;orthogonalLoop=1;jettySize=auto;html=1;exitX=0;exitY=0.5;exitDx=0;exitDy=0;entryX=1;entryY=0.5;entryDx=0;entryDy=0;fontSize=12;fontColor=#000000;" edge="1" parent="1" source="ZJ0Vl-9VFSbvNczqbL2C-17" target="ZJ0Vl-9VFSbvNczqbL2C-19">
          <mxGeometry relative="1" as="geometry" />
        </mxCell>
        <mxCell id="ZJ0Vl-9VFSbvNczqbL2C-17" value="QA ; 품질보장" style="rounded=1;whiteSpace=wrap;html=1;fontSize=20;fillColor=#ffe6cc;strokeColor=#d79b00;" vertex="1" parent="1">
          <mxGeometry x="240" y="360" width="160" height="80" as="geometry" />
        </mxCell>
        <mxCell id="ZJ0Vl-9VFSbvNczqbL2C-19" value="배포/오픈&lt;br&gt;&lt;font style=&quot;font-size: 12px;&quot;&gt;- 서비스 모니터링&lt;br&gt;- 서비스 지표 관리&lt;/font&gt;" style="rounded=1;whiteSpace=wrap;html=1;fontSize=20;fillColor=#ffe6cc;strokeColor=#d79b00;" vertex="1" parent="1">
          <mxGeometry x="40" y="360" width="160" height="80" as="geometry" />
        </mxCell>
        <mxCell id="ZJ0Vl-9VFSbvNczqbL2C-20" value="&lt;font color=&quot;#000000&quot;&gt;지표는 정량적 데이터로&lt;/font&gt;" style="text;strokeColor=none;align=center;fillColor=none;html=1;verticalAlign=middle;whiteSpace=wrap;rounded=0;fontSize=12;fontColor=#FF0000;" vertex="1" parent="1">
          <mxGeometry x="40" y="450" width="160" height="30" as="geometry" />
        </mxCell>
        <mxCell id="ZJ0Vl-9VFSbvNczqbL2C-54" style="edgeStyle=orthogonalEdgeStyle;rounded=0;orthogonalLoop=1;jettySize=auto;html=1;exitX=0.5;exitY=1;exitDx=0;exitDy=0;entryX=0.5;entryY=0;entryDx=0;entryDy=0;fontSize=17;fontColor=#000000;" edge="1" parent="1" source="ZJ0Vl-9VFSbvNczqbL2C-23" target="ZJ0Vl-9VFSbvNczqbL2C-25">
          <mxGeometry relative="1" as="geometry">
            <Array as="points">
              <mxPoint x="200" y="880" />
              <mxPoint x="100" y="880" />
            </Array>
          </mxGeometry>
        </mxCell>
        <mxCell id="ZJ0Vl-9VFSbvNczqbL2C-55" style="edgeStyle=orthogonalEdgeStyle;rounded=0;orthogonalLoop=1;jettySize=auto;html=1;exitX=0.5;exitY=1;exitDx=0;exitDy=0;entryX=0.5;entryY=0;entryDx=0;entryDy=0;fontSize=17;fontColor=#000000;" edge="1" parent="1" source="ZJ0Vl-9VFSbvNczqbL2C-23" target="ZJ0Vl-9VFSbvNczqbL2C-30">
          <mxGeometry relative="1" as="geometry">
            <Array as="points">
              <mxPoint x="200" y="880" />
              <mxPoint x="260" y="880" />
            </Array>
          </mxGeometry>
        </mxCell>
        <mxCell id="ZJ0Vl-9VFSbvNczqbL2C-56" style="edgeStyle=orthogonalEdgeStyle;rounded=0;orthogonalLoop=1;jettySize=auto;html=1;exitX=0.5;exitY=1;exitDx=0;exitDy=0;entryX=0.5;entryY=0;entryDx=0;entryDy=0;fontSize=17;fontColor=#000000;" edge="1" parent="1" source="ZJ0Vl-9VFSbvNczqbL2C-23" target="ZJ0Vl-9VFSbvNczqbL2C-35">
          <mxGeometry relative="1" as="geometry">
            <Array as="points">
              <mxPoint x="200" y="880" />
              <mxPoint x="420" y="880" />
            </Array>
          </mxGeometry>
        </mxCell>
        <mxCell id="ZJ0Vl-9VFSbvNczqbL2C-57" style="edgeStyle=orthogonalEdgeStyle;rounded=0;orthogonalLoop=1;jettySize=auto;html=1;exitX=0.5;exitY=1;exitDx=0;exitDy=0;entryX=0.5;entryY=0;entryDx=0;entryDy=0;fontSize=17;fontColor=#000000;" edge="1" parent="1" source="ZJ0Vl-9VFSbvNczqbL2C-23" target="ZJ0Vl-9VFSbvNczqbL2C-40">
          <mxGeometry relative="1" as="geometry">
            <Array as="points">
              <mxPoint x="200" y="880" />
              <mxPoint x="580" y="880" />
            </Array>
          </mxGeometry>
        </mxCell>
        <mxCell id="ZJ0Vl-9VFSbvNczqbL2C-58" style="edgeStyle=orthogonalEdgeStyle;rounded=0;orthogonalLoop=1;jettySize=auto;html=1;exitX=0.5;exitY=1;exitDx=0;exitDy=0;entryX=0.5;entryY=0;entryDx=0;entryDy=0;fontSize=17;fontColor=#000000;" edge="1" parent="1" source="ZJ0Vl-9VFSbvNczqbL2C-23" target="ZJ0Vl-9VFSbvNczqbL2C-45">
          <mxGeometry relative="1" as="geometry" />
        </mxCell>
        <mxCell id="ZJ0Vl-9VFSbvNczqbL2C-59" style="edgeStyle=orthogonalEdgeStyle;rounded=0;orthogonalLoop=1;jettySize=auto;html=1;exitX=0.5;exitY=1;exitDx=0;exitDy=0;entryX=0.5;entryY=0;entryDx=0;entryDy=0;fontSize=17;fontColor=#000000;" edge="1" parent="1" source="ZJ0Vl-9VFSbvNczqbL2C-23" target="ZJ0Vl-9VFSbvNczqbL2C-48">
          <mxGeometry relative="1" as="geometry" />
        </mxCell>
        <mxCell id="ZJ0Vl-9VFSbvNczqbL2C-60" style="edgeStyle=orthogonalEdgeStyle;rounded=0;orthogonalLoop=1;jettySize=auto;html=1;exitX=0.5;exitY=1;exitDx=0;exitDy=0;entryX=0.5;entryY=0;entryDx=0;entryDy=0;fontSize=17;fontColor=#000000;" edge="1" parent="1" source="ZJ0Vl-9VFSbvNczqbL2C-23" target="ZJ0Vl-9VFSbvNczqbL2C-51">
          <mxGeometry relative="1" as="geometry" />
        </mxCell>
        <mxCell id="ZJ0Vl-9VFSbvNczqbL2C-23" value="&lt;font size=&quot;1&quot; style=&quot;&quot;&gt;&lt;b style=&quot;font-size: 17px;&quot;&gt;HOME&lt;/b&gt;&lt;/font&gt;" style="rounded=0;whiteSpace=wrap;html=1;fontSize=12;fontColor=#333333;fillColor=#f5f5f5;strokeColor=#666666;gradientColor=#C2C2C2;" vertex="1" parent="1">
          <mxGeometry x="120" y="560" width="160" height="40" as="geometry" />
        </mxCell>
        <mxCell id="ZJ0Vl-9VFSbvNczqbL2C-25" value="&lt;span style=&quot;font-size: 17px;&quot;&gt;&lt;b&gt;About Us&lt;/b&gt;&lt;/span&gt;" style="rounded=0;whiteSpace=wrap;html=1;fontSize=12;fontColor=#333333;fillColor=#f5f5f5;strokeColor=#666666;gradientColor=#66B2FF;" vertex="1" parent="1">
          <mxGeometry x="40" y="920" width="120" height="40" as="geometry" />
        </mxCell>
        <mxCell id="ZJ0Vl-9VFSbvNczqbL2C-26" value="회사 소개" style="rounded=1;whiteSpace=wrap;html=1;fontSize=17;fontColor=#000000;gradientColor=#C2C2C2;" vertex="1" parent="1">
          <mxGeometry x="40" y="1000" width="120" height="40" as="geometry" />
        </mxCell>
        <mxCell id="ZJ0Vl-9VFSbvNczqbL2C-27" value="CEO 인사말" style="rounded=1;whiteSpace=wrap;html=1;fontSize=17;fontColor=#000000;gradientColor=#C2C2C2;" vertex="1" parent="1">
          <mxGeometry x="40" y="1080" width="120" height="40" as="geometry" />
        </mxCell>
        <mxCell id="ZJ0Vl-9VFSbvNczqbL2C-28" value="연혁" style="rounded=1;whiteSpace=wrap;html=1;fontSize=17;fontColor=#000000;gradientColor=#C2C2C2;" vertex="1" parent="1">
          <mxGeometry x="40" y="1160" width="120" height="40" as="geometry" />
        </mxCell>
        <mxCell id="ZJ0Vl-9VFSbvNczqbL2C-29" value="연락처" style="rounded=1;whiteSpace=wrap;html=1;fontSize=17;fontColor=#000000;gradientColor=#C2C2C2;" vertex="1" parent="1">
          <mxGeometry x="40" y="1240" width="120" height="40" as="geometry" />
        </mxCell>
        <mxCell id="ZJ0Vl-9VFSbvNczqbL2C-30" value="&lt;font size=&quot;1&quot; style=&quot;&quot;&gt;&lt;b style=&quot;font-size: 17px;&quot;&gt;사업 소개&lt;/b&gt;&lt;/font&gt;" style="rounded=0;whiteSpace=wrap;html=1;fontSize=12;fontColor=#333333;fillColor=#f5f5f5;strokeColor=#666666;gradientColor=#66B2FF;" vertex="1" parent="1">
          <mxGeometry x="200" y="920" width="120" height="40" as="geometry" />
        </mxCell>
        <mxCell id="ZJ0Vl-9VFSbvNczqbL2C-31" value="사업 영역 1" style="rounded=1;whiteSpace=wrap;html=1;fontSize=17;fontColor=#000000;gradientColor=#C2C2C2;" vertex="1" parent="1">
          <mxGeometry x="200" y="1000" width="120" height="40" as="geometry" />
        </mxCell>
        <mxCell id="ZJ0Vl-9VFSbvNczqbL2C-32" value="사업 영역 2" style="rounded=1;whiteSpace=wrap;html=1;fontSize=17;fontColor=#000000;gradientColor=#C2C2C2;" vertex="1" parent="1">
          <mxGeometry x="200" y="1080" width="120" height="40" as="geometry" />
        </mxCell>
        <mxCell id="ZJ0Vl-9VFSbvNczqbL2C-33" value="사업 영역 3" style="rounded=1;whiteSpace=wrap;html=1;fontSize=17;fontColor=#000000;gradientColor=#C2C2C2;" vertex="1" parent="1">
          <mxGeometry x="200" y="1160" width="120" height="40" as="geometry" />
        </mxCell>
        <mxCell id="ZJ0Vl-9VFSbvNczqbL2C-35" value="&lt;font size=&quot;1&quot; style=&quot;&quot;&gt;&lt;b style=&quot;font-size: 17px;&quot;&gt;제품 소개&lt;/b&gt;&lt;/font&gt;" style="rounded=0;whiteSpace=wrap;html=1;fontSize=12;fontColor=#333333;fillColor=#f5f5f5;strokeColor=#666666;gradientColor=#66B2FF;" vertex="1" parent="1">
          <mxGeometry x="360" y="920" width="120" height="40" as="geometry" />
        </mxCell>
        <mxCell id="ZJ0Vl-9VFSbvNczqbL2C-36" value="제품 소개 1" style="rounded=1;whiteSpace=wrap;html=1;fontSize=17;fontColor=#000000;gradientColor=#C2C2C2;" vertex="1" parent="1">
          <mxGeometry x="360" y="1000" width="120" height="40" as="geometry" />
        </mxCell>
        <mxCell id="ZJ0Vl-9VFSbvNczqbL2C-37" value="제품 소개 2" style="rounded=1;whiteSpace=wrap;html=1;fontSize=17;fontColor=#000000;gradientColor=#C2C2C2;" vertex="1" parent="1">
          <mxGeometry x="360" y="1080" width="120" height="40" as="geometry" />
        </mxCell>
        <mxCell id="ZJ0Vl-9VFSbvNczqbL2C-40" value="&lt;font size=&quot;1&quot; style=&quot;&quot;&gt;&lt;b style=&quot;font-size: 17px;&quot;&gt;고객 센터&lt;/b&gt;&lt;/font&gt;" style="rounded=0;whiteSpace=wrap;html=1;fontSize=12;fontColor=#333333;fillColor=#f5f5f5;strokeColor=#666666;gradientColor=#66B2FF;" vertex="1" parent="1">
          <mxGeometry x="520" y="920" width="120" height="40" as="geometry" />
        </mxCell>
        <mxCell id="ZJ0Vl-9VFSbvNczqbL2C-41" value="공지사항" style="rounded=1;whiteSpace=wrap;html=1;fontSize=17;fontColor=#000000;gradientColor=#C2C2C2;" vertex="1" parent="1">
          <mxGeometry x="520" y="1000" width="120" height="40" as="geometry" />
        </mxCell>
        <mxCell id="ZJ0Vl-9VFSbvNczqbL2C-42" value="질문 답변" style="rounded=1;whiteSpace=wrap;html=1;fontSize=17;fontColor=#000000;gradientColor=#C2C2C2;" vertex="1" parent="1">
          <mxGeometry x="520" y="1080" width="120" height="40" as="geometry" />
        </mxCell>
        <mxCell id="ZJ0Vl-9VFSbvNczqbL2C-43" value="1:1 문의" style="rounded=1;whiteSpace=wrap;html=1;fontSize=17;fontColor=#000000;gradientColor=#C2C2C2;" vertex="1" parent="1">
          <mxGeometry x="520" y="1160" width="120" height="40" as="geometry" />
        </mxCell>
        <mxCell id="ZJ0Vl-9VFSbvNczqbL2C-45" value="&lt;font size=&quot;1&quot; style=&quot;&quot;&gt;&lt;b style=&quot;font-size: 17px;&quot;&gt;로그인&lt;/b&gt;&lt;/font&gt;" style="rounded=0;whiteSpace=wrap;html=1;fontSize=12;fontColor=#333333;fillColor=#f5f5f5;strokeColor=#666666;gradientColor=#97D077;" vertex="1" parent="1">
          <mxGeometry x="320" y="640" width="120" height="40" as="geometry" />
        </mxCell>
        <mxCell id="ZJ0Vl-9VFSbvNczqbL2C-46" value="아이디 찾기" style="rounded=1;whiteSpace=wrap;html=1;fontSize=17;fontColor=#000000;gradientColor=#FFD966;" vertex="1" parent="1">
          <mxGeometry x="320" y="720" width="120" height="40" as="geometry" />
        </mxCell>
        <mxCell id="ZJ0Vl-9VFSbvNczqbL2C-47" value="비번 찾기" style="rounded=1;whiteSpace=wrap;html=1;fontSize=17;fontColor=#000000;gradientColor=#FFD966;" vertex="1" parent="1">
          <mxGeometry x="320" y="800" width="120" height="40" as="geometry" />
        </mxCell>
        <mxCell id="ZJ0Vl-9VFSbvNczqbL2C-48" value="&lt;font size=&quot;1&quot; style=&quot;&quot;&gt;&lt;b style=&quot;font-size: 17px;&quot;&gt;회원가입&lt;/b&gt;&lt;/font&gt;" style="rounded=0;whiteSpace=wrap;html=1;fontSize=12;fontColor=#333333;fillColor=#f5f5f5;strokeColor=#666666;gradientColor=#97D077;" vertex="1" parent="1">
          <mxGeometry x="480" y="640" width="120" height="40" as="geometry" />
        </mxCell>
        <mxCell id="ZJ0Vl-9VFSbvNczqbL2C-49" value="탈퇴" style="rounded=1;whiteSpace=wrap;html=1;fontSize=17;fontColor=#000000;gradientColor=#FFD966;" vertex="1" parent="1">
          <mxGeometry x="480" y="720" width="120" height="40" as="geometry" />
        </mxCell>
        <mxCell id="ZJ0Vl-9VFSbvNczqbL2C-51" value="&lt;font size=&quot;1&quot; style=&quot;&quot;&gt;&lt;b style=&quot;font-size: 17px;&quot;&gt;마이메뉴&lt;/b&gt;&lt;/font&gt;" style="rounded=0;whiteSpace=wrap;html=1;fontSize=12;fontColor=#333333;fillColor=#f5f5f5;strokeColor=#666666;gradientColor=#97D077;" vertex="1" parent="1">
          <mxGeometry x="640" y="640" width="120" height="40" as="geometry" />
        </mxCell>
        <mxCell id="ZJ0Vl-9VFSbvNczqbL2C-52" value="정보 수정" style="rounded=1;whiteSpace=wrap;html=1;fontSize=17;fontColor=#000000;gradientColor=#FFD966;" vertex="1" parent="1">
          <mxGeometry x="640" y="720" width="120" height="40" as="geometry" />
        </mxCell>
        <mxCell id="ZJ0Vl-9VFSbvNczqbL2C-53" value="구매 내역" style="rounded=1;whiteSpace=wrap;html=1;fontSize=17;fontColor=#000000;gradientColor=#FFD966;" vertex="1" parent="1">
          <mxGeometry x="640" y="800" width="120" height="40" as="geometry" />
        </mxCell>
      </root>
    </mxGraphModel>
  </diagram>
</mxfile>
